<?xml version="1.0" encoding="UTF-8"?>
<svg id="Capa_1" data-name="Capa 1" xmlns="http://www.w3.org/2000/svg" xmlns:xlink="http://www.w3.org/1999/xlink" viewBox="0 0 1366.63 558">
  <defs>
    <style>
      .cls-1 {
        fill: #000;
      }

      .cls-1, .cls-2, .cls-3, .cls-4, .cls-5, .cls-6, .cls-7, .cls-8, .cls-9, .cls-10 {
        stroke-width: 0px;
      }

      .cls-2 {
        fill: url(#Degradado_sin_nombre_126-2);
      }

      .cls-3 {
        fill: url(#Degradado_sin_nombre_126-6);
      }

      .cls-4 {
        fill: url(#Degradado_sin_nombre_126);
      }

      .cls-5 {
        fill: url(#Degradado_sin_nombre_126-4);
      }

      .cls-6 {
        fill: url(#Degradado_sin_nombre_126-5);
      }

      .cls-7 {
        fill: #fff;
      }

      .cls-8 {
        fill: url(#Degradado_sin_nombre_126-3);
      }

      .cls-9 {
        fill: #00f5fd;
      }

      .cls-10 {
        fill: #ff58c3;
      }
    </style>
    <linearGradient id="Degradado_sin_nombre_126" data-name="Degradado sin nombre 126" x1="88.4" y1="179.57" x2="326.45" y2="179.57" gradientUnits="userSpaceOnUse">
      <stop offset="0" stop-color="#fb2ad2"/>
      <stop offset="1" stop-color="#035eee"/>
    </linearGradient>
    <linearGradient id="Degradado_sin_nombre_126-2" data-name="Degradado sin nombre 126" x1="93.81" x2="321.04" xlink:href="#Degradado_sin_nombre_126"/>
    <linearGradient id="Degradado_sin_nombre_126-3" data-name="Degradado sin nombre 126" x1="115.43" y1="191.31" x2="299.42" y2="191.31" xlink:href="#Degradado_sin_nombre_126"/>
    <linearGradient id="Degradado_sin_nombre_126-4" data-name="Degradado sin nombre 126" x1="120.84" y1="191.29" x2="294.01" y2="191.29" xlink:href="#Degradado_sin_nombre_126"/>
    <linearGradient id="Degradado_sin_nombre_126-5" data-name="Degradado sin nombre 126" x1="191.19" y1="140.29" x2="223.65" y2="140.29" xlink:href="#Degradado_sin_nombre_126"/>
    <linearGradient id="Degradado_sin_nombre_126-6" data-name="Degradado sin nombre 126" x1="200.39" y1="140.29" x2="214.46" y2="140.29" xlink:href="#Degradado_sin_nombre_126"/>
  </defs>
  <g id="compu">
    <path id="C" class="cls-7" d="M311.72,392.56l55.14.03c1.12,0,2.02.91,2.02,2.02v10.1c0,1.1-.9,2-2,2h-47.94c-1.12,0-2.02.9-2.02,2.02l-.04,33.83c0,1.12.9,2.02,2.02,2.02h47.96c1.12,0,2.02.9,2.02,2.02v10.1c0,1.1-.9,2-2,2h-55.17c-4.97,0-9-4.03-9-9v-48.16c0-4.97,4.03-9,9-9Z"/>
    <g id="O">
      <path class="cls-7" d="M444.54,401.56c0-4.98-4.04-9.01-9.02-9.01h-48.14c-4.98,0-9.02,4.04-9.02,9.02v48.17c0,4.98,4.04,9.02,9.02,9.02h48.17c4.98,0,9.02-4.04,9.02-9.02l-.03-48.17ZM429.83,449.34c-.31,0-.61,0-.67,0-.85,0,.96.01.67,0Z"/>
      <path class="cls-1" d="M394.56,406.76h33.82c1.11,0,2.01.9,2.01,2.01l-.04,33.7c0,1.11-.9,2-2.01,2h-33.78c-1.11,0-2.01-.9-2.01-2.01v-33.7c0-1.11.9-2.01,2.01-2.01Z"/>
    </g>
    <path id="M" class="cls-7" d="M463,392.56l52.95.03c4.98,0,9.02,4.04,9.02,9.02v55.12c0,1.12-.91,2.03-2.03,2.03h-10.16c-1.12,0-2.02-.9-2.03-2.02l-.13-47.99c0-1.12-.91-2.02-2.03-2.02h-9.95c-1.12,0-2.03.91-2.03,2.03v47.97c0,1.12-.91,2.03-2.03,2.03h-10.23c-1.12,0-2.02-.9-2.03-2.02l-.1-47.98c0-1.12-.91-2.02-2.03-2.02h-10c-1.12,0-2.03.91-2.03,2.03l.1,47.97c0,1.12-.91,2.03-2.03,2.03h-10.26c-1.12,0-2.03-.91-2.03-2.03v-55.15c0-4.99,4.04-9.03,9.03-9.02Z"/>
    <g id="P">
      <path id="P-2" data-name="P" class="cls-7" d="M542.84,392.56h49.36c4.65,0,8.42,4.04,8.42,9.03v24.5c0,4.99-3.77,9.03-8.41,9.03h-42.49c-1.05,0-1.15.49-1.21,2.16v19.55c.06,1.46-.65,1.93-2.6,1.93h-9.54c-1.05,0-1.91-.92-1.91-2.05v-55.15c0-4.97,3.76-9,8.39-9Z"/>
      <path class="cls-1" d="M549.73,406.76h35.8c1.03,0,1.86.9,1.86,2v10c0,1.1-.83,2-1.86,2h-35.8c-1.03,0-1.86-.9-1.86-2v-10c0-1.1.83-2,1.86-2Z"/>
    </g>
    <path id="U" class="cls-7" d="M612.07,392.56h10.21c1.14,0,2.06.92,2.06,2.06l-.05,47.83c0,1.14.92,2.06,2.06,2.06h33.71c1.14,0,2.06-.92,2.06-2.06v-47.83c0-1.14.92-2.06,2.06-2.06h10.05c1.14,0,2.06.92,2.06,2.06v55.14c0,4.99-4.04,9.03-9.03,9.03h-48.19c-5,0-9.06-4.05-9.06-9.06v-55.12c0-1.14.92-2.06,2.06-2.06Z"/>
    <path id="T" class="cls-7" d="M687.61,392.56h62.3c1.11,0,2.02.9,2.02,2.02v10.25c0,1.11-.9,2.02-2.02,2.02h-21.88c-1.12,0-2.02.91-2.02,2.02l.08,47.9c0,1.12-.9,2.02-2.02,2.02h-10.3c-1.11,0-2.01-.9-2.02-2.01l-.15-47.93c0-1.11-.9-2.01-2.01-2.01l-21.98-.07c-1.11,0-2.01-.91-2.01-2.02v-10.17c0-1.11.9-2.02,2.02-2.02Z"/>
    <g id="A">
      <path class="cls-7" d="M770.36,392.56h48.17c5,0,9.06,4.06,9.06,9.06v55.11c0,1.14-.92,2.06-2.06,2.06h-9.96c-1.14,0-2.06-.92-2.06-2.06v-19.58c0-1.14-.92-2.06-2.06-2.06h-33.87c-1.14,0-2.07.93-2.06,2.07l.14,19.55c0,1.14-.92,2.07-2.06,2.07h-10.2c-1.14,0-2.06-.92-2.06-2.06v-55.15c0-4.98,4.04-9.02,9.02-9.02Z"/>
      <rect class="cls-1" x="775.51" y="406.76" width="37.75" height="13.92" rx="2" ry="2"/>
    </g>
    <path id="C-2" data-name="C" class="cls-7" d="M846.26,392.59l55.14.03c1.12,0,2.02.91,2.02,2.02v10.1c0,1.1-.9,2-2,2h-47.94c-1.12,0-2.02.9-2.02,2.02l-.04,33.83c0,1.12.9,2.02,2.02,2.02h47.96c1.12,0,2.02.9,2.02,2.02v10.1c0,1.1-.9,2-2,2h-55.17c-4.97,0-9-4.03-9-9v-48.16c0-4.97,4.03-9,9-9Z"/>
    <path class="cls-7" d="M914.76,392.59h66.92c1.1,0,2,.9,2,2v10.08c0,1.1-.9,2-2,2h-24.42c-1.1,0-2,.9-2,2v33.83c0,1.1.9,2,2,2h24.42c1.1,0,2,.9,2,2v10.24c0,1.1-.9,2-2,2h-66.92c-1.1,0-2-.9-2-2v-10.24c0-1.1.9-2,2-2h24.17c1.1,0,2-.89,2-1.99l.15-33.75c0-1.11-.89-2.01-1.99-2.01l-24.34-.07c-1.1,0-1.99-.9-1.99-2v-10.09c0-1.1.9-2,2-2Z"/>
    <g id="O-2" data-name="O">
      <path class="cls-7" d="M1059.25,401.58c0-4.98-4.04-9.01-9.02-9.01h-48.14c-4.98,0-9.02,4.04-9.02,9.02v48.17c0,4.98,4.04,9.02,9.02,9.02h48.17c4.98,0,9.02-4.04,9.02-9.02l-.03-48.17ZM1044.54,449.36c-.31,0-.61,0-.67,0-.85,0,.96.01.67,0Z"/>
      <path class="cls-1" d="M1009.26,406.78h33.82c1.11,0,2.01.9,2.01,2.01l-.04,33.7c0,1.11-.9,2-2.01,2h-33.78c-1.11,0-2.01-.9-2.01-2.01v-33.7c0-1.11.9-2.01,2.01-2.01Z"/>
    </g>
    <path class="cls-7" d="M1032.02,373.73h9.35c1.6,0,2.55,1.77,1.67,3.11l-6.66,10.1c-.37.56-1,.9-1.67.9h-9.45c-1.6,0-2.56-1.79-1.67-3.12l6.76-10.1c.37-.56,1-.89,1.67-.89Z"/>
    <path class="cls-7" d="M1070.76,392.57h11.26c.58,0,1.13.25,1.51.68l33.61,37.78c1.24,1.39,3.54.52,3.54-1.35v-35.09c0-1.12.91-2.03,2.03-2.03h10.28c1.12,0,2.03.91,2.03,2.03v62.16c0,1.12-.91,2.03-2.03,2.03h-11.34c-.58,0-1.13-.25-1.52-.68l-33.58-37.85c-1.24-1.39-3.54-.52-3.54,1.34l-.03,35.16c0,1.12-.91,2.02-2.03,2.02h-10.19c-1.12,0-2.03-.91-2.03-2.03v-62.16c0-1.12.91-2.03,2.03-2.03Z"/>
  </g>
  <g id="stech1">
    <g id="stech_celeste" data-name="stech celeste">
      <path class="cls-9" d="M495.01,97.73v20.67c0,2.08-1.69,3.77-3.77,3.77h-120.01c-2.08,0-3.77,1.69-3.77,3.77v24.89c0,2.08,1.69,3.77,3.77,3.77h106.01c9.82,0,17.77,7.96,17.77,17.77v64c0,9.94-8.06,18-18,18h-134.23c-2.08,0-3.77-1.69-3.77-3.77v-25.36c0-2.08,1.68-3.76,3.76-3.77l120.91-.63c2.09-.01,3.77-1.71,3.76-3.8l-.17-25.35c-.01-2.08-1.7-3.75-3.78-3.75l-106.35.18c-10,.02-18.12-8.09-18.12-18.09v-58.1c0-9.94,8.06-18,18-18h134.23c2.08,0,3.77,1.69,3.77,3.77Z"/>
      <path class="cls-9" d="M522.9,93.95h148.43c2.15,0,3.9,1.74,3.9,3.9v15.54c0,2.15,1.11,8.65-4.4,8.56l-54.52.16c-1.7,0-3.07,1.39-3.07,3.08l.2,125.3c0,2.15-1.74,3.9-3.9,3.9h-20.19c-2.16,0-3.9-1.75-3.9-3.91l-.04-125.27c0-1.66-1.33-3-2.98-3.05,0,0-.02,0-.03,0l-59.11-.2c-5.3.06-4.3-6.21-4.3-8.35v-15.78c0-2.15,1.74-3.9,3.9-3.9Z"/>
      <path class="cls-9" d="M719.7,93.89l133.6-.43c2.24,0,4.06,1.79,4.07,4.03l.16,21.7c.02,2.25-1.81,4.09-4.06,4.09h-119.38c-2.23,0-4.04,1.8-4.06,4.02l-.23,26.77c-.02,2.26,1.8,4.1,4.06,4.1h119.43c2.24,0,4.06,1.82,4.06,4.06v21.91c0,2.24-1.82,4.06-4.06,4.06h-119.38c-2.24,0-4.06,1.82-4.06,4.06v27.63c0,2.24,1.82,4.06,4.06,4.06h119.38c2.24,0,4.06,1.82,4.06,4.06v22.3c0,2.24-1.82,4.06-4.06,4.06h-133.9c-9.96,0-18.04-8.08-18.04-18.04v-124.02c0-10.15,8.21-18.39,18.36-18.42Z"/>
      <path class="cls-9" d="M904.19,93.46l133.85-.06c2.25,0,4.08,1.82,4.08,4.08v20.4c0,2.25-1.83,4.08-4.08,4.08h-119.4c-2.25,0-4.08,1.83-4.08,4.08l.1,93.62c0,2.25,1.83,4.07,4.08,4.07h119.29c2.25,0,4.08,1.83,4.08,4.08v22.51c0,2.25-1.83,4.08-4.08,4.08h-133.87c-9.97,0-18.06-8.08-18.06-18.06v-124.8c0-9.98,8.09-18.08,18.07-18.08Z"/>
      <path class="cls-9" d="M1073.7,93.4h20.5c2.22,0,4.03,1.8,4.03,4.03v57.94c0,2.22,1.8,4.03,4.03,4.03h95.84c2.22,0,4.03-1.8,4.03-4.03v-57.94c0-2.22,1.8-4.03,4.03-4.03h20.39c2.22,0,4.03,1.8,4.03,4.03v152.83c0,2.22-1.8,4.03-4.03,4.03h-20.42c-2.21,0-4.01-1.79-4.03-4l-.39-58.22c-.01-2.21-1.81-4-4.03-4h-95.64c-2.22,0-4.03,1.8-4.03,4.03v58.17c0,2.22-1.8,4.03-4.03,4.03h-20.28c-2.22,0-4.03-1.8-4.03-4.03V97.43c0-2.22,1.8-4.03,4.03-4.03Z"/>
    </g>
    <g id="stech_rosa" data-name="stech rosa">
      <path class="cls-10" d="M507.01,109.39v20.67c0,2.08-1.69,3.77-3.77,3.77h-120.01c-2.08,0-3.77,1.69-3.77,3.77v24.89c0,2.08,1.69,3.77,3.77,3.77h106.01c9.82,0,17.77,7.96,17.77,17.77v64c0,9.94-8.06,18-18,18h-134.23c-2.08,0-3.77-1.69-3.77-3.77v-25.36c0-2.08,1.68-3.76,3.76-3.77l120.91-.63c2.09-.01,3.77-1.71,3.76-3.8l-.17-25.35c-.01-2.08-1.7-3.75-3.78-3.75l-106.35.18c-10,.02-18.12-8.09-18.12-18.09v-58.1c0-9.94,8.06-18,18-18h134.23c2.08,0,3.77,1.69,3.77,3.77Z"/>
      <path class="cls-10" d="M534.9,105.62h148.43c2.15,0,3.9,1.74,3.9,3.9v15.54c0,2.15,1.11,8.65-4.4,8.56l-54.52.16c-1.7,0-3.07,1.39-3.07,3.08l.2,125.3c0,2.15-1.74,3.9-3.9,3.9h-20.19c-2.16,0-3.9-1.75-3.9-3.91l-.04-125.27c0-1.66-1.33-3-2.98-3.05,0,0-.02,0-.03,0l-59.11-.2c-5.3.06-4.3-6.21-4.3-8.35v-15.78c0-2.15,1.74-3.9,3.9-3.9Z"/>
      <path class="cls-10" d="M731.7,105.56l133.6-.43c2.24,0,4.06,1.79,4.07,4.03l.16,21.7c.02,2.25-1.81,4.09-4.06,4.09h-119.38c-2.23,0-4.04,1.8-4.06,4.02l-.23,26.77c-.02,2.26,1.8,4.1,4.06,4.1h119.43c2.24,0,4.06,1.82,4.06,4.06v21.91c0,2.24-1.82,4.06-4.06,4.06h-119.38c-2.24,0-4.06,1.82-4.06,4.06v27.63c0,2.24,1.82,4.06,4.06,4.06h119.38c2.24,0,4.06,1.82,4.06,4.06v22.3c0,2.24-1.82,4.06-4.06,4.06h-133.9c-9.96,0-18.04-8.08-18.04-18.04v-124.02c0-10.15,8.21-18.39,18.36-18.42Z"/>
      <path class="cls-10" d="M916.19,105.13l133.85-.06c2.25,0,4.08,1.82,4.08,4.08v20.4c0,2.25-1.83,4.08-4.08,4.08h-119.4c-2.25,0-4.08,1.83-4.08,4.08l.1,93.62c0,2.25,1.83,4.07,4.08,4.07h119.29c2.25,0,4.08,1.83,4.08,4.08v22.51c0,2.25-1.83,4.08-4.08,4.08h-133.87c-9.97,0-18.06-8.08-18.06-18.06v-124.8c0-9.98,8.09-18.08,18.07-18.08Z"/>
      <path class="cls-10" d="M1085.7,105.07h20.5c2.22,0,4.03,1.8,4.03,4.03v57.94c0,2.22,1.8,4.03,4.03,4.03h95.84c2.22,0,4.03-1.8,4.03-4.03v-57.94c0-2.22,1.8-4.03,4.03-4.03h20.39c2.22,0,4.03,1.8,4.03,4.03v152.83c0,2.22-1.8,4.03-4.03,4.03h-20.42c-2.21,0-4.01-1.79-4.03-4l-.39-58.22c-.01-2.21-1.81-4-4.03-4h-95.64c-2.22,0-4.03,1.8-4.03,4.03v58.17c0,2.22-1.8,4.03-4.03,4.03h-20.28c-2.22,0-4.03-1.8-4.03-4.03V109.09c0-2.22,1.8-4.03,4.03-4.03Z"/>
    </g>
    <g id="stech_blanco" data-name="stech blanco">
      <path class="cls-7" d="M501.01,103.45v20.67c0,2.08-1.69,3.77-3.77,3.77h-120.01c-2.08,0-3.77,1.69-3.77,3.77v24.89c0,2.08,1.69,3.77,3.77,3.77h106.01c9.82,0,17.77,7.96,17.77,17.77v64c0,9.94-8.06,18-18,18h-134.23c-2.08,0-3.77-1.69-3.77-3.77v-25.36c0-2.08,1.68-3.76,3.76-3.77l120.91-.63c2.09-.01,3.77-1.71,3.76-3.8l-.17-25.35c-.01-2.08-1.7-3.75-3.78-3.75l-106.35.18c-10,.02-18.12-8.09-18.12-18.09v-58.1c0-9.94,8.06-18,18-18h134.23c2.08,0,3.77,1.69,3.77,3.77Z"/>
      <path class="cls-7" d="M528.9,99.68h148.43c2.15,0,3.9,1.74,3.9,3.9v15.54c0,2.15,1.11,8.65-4.4,8.56l-54.52.16c-1.7,0-3.07,1.39-3.07,3.08l.2,125.3c0,2.15-1.74,3.9-3.9,3.9h-20.19c-2.16,0-3.9-1.75-3.9-3.91l-.04-125.27c0-1.66-1.33-3-2.98-3.05,0,0-.02,0-.03,0l-59.11-.2c-5.3.06-4.3-6.21-4.3-8.35v-15.78c0-2.15,1.74-3.9,3.9-3.9Z"/>
      <path class="cls-7" d="M725.7,99.62l133.6-.43c2.24,0,4.06,1.79,4.07,4.03l.16,21.7c.02,2.25-1.81,4.09-4.06,4.09h-119.38c-2.23,0-4.04,1.8-4.06,4.02l-.23,26.77c-.02,2.26,1.8,4.1,4.06,4.1h119.43c2.24,0,4.06,1.82,4.06,4.06v21.91c0,2.24-1.82,4.06-4.06,4.06h-119.38c-2.24,0-4.06,1.82-4.06,4.06v27.63c0,2.24,1.82,4.06,4.06,4.06h119.38c2.24,0,4.06,1.82,4.06,4.06v22.3c0,2.24-1.82,4.06-4.06,4.06h-133.9c-9.96,0-18.04-8.08-18.04-18.04v-124.02c0-10.15,8.21-18.39,18.36-18.42Z"/>
      <path class="cls-7" d="M910.19,99.18l133.85-.06c2.25,0,4.08,1.82,4.08,4.08v20.4c0,2.25-1.83,4.08-4.08,4.08h-119.4c-2.25,0-4.08,1.83-4.08,4.08l.1,93.62c0,2.25,1.83,4.07,4.08,4.07h119.29c2.25,0,4.08,1.83,4.08,4.08v22.51c0,2.25-1.83,4.08-4.08,4.08h-133.87c-9.97,0-18.06-8.08-18.06-18.06v-124.8c0-9.98,8.09-18.08,18.07-18.08Z"/>
      <path class="cls-7" d="M1079.7,99.12h20.5c2.22,0,4.03,1.8,4.03,4.03v57.94c0,2.22,1.8,4.03,4.03,4.03h95.84c2.22,0,4.03-1.8,4.03-4.03v-57.94c0-2.22,1.8-4.03,4.03-4.03h20.39c2.22,0,4.03,1.8,4.03,4.03v152.83c0,2.22-1.8,4.03-4.03,4.03h-20.42c-2.21,0-4.01-1.79-4.03-4l-.39-58.22c-.01-2.21-1.81-4-4.03-4h-95.64c-2.22,0-4.03,1.8-4.03,4.03v58.17c0,2.22-1.8,4.03-4.03,4.03h-20.28c-2.22,0-4.03-1.8-4.03-4.03V103.15c0-2.22,1.8-4.03,4.03-4.03Z"/>
    </g>
  </g>
  <g>
    <circle class="cls-4" cx="207.42" cy="179.57" r="119.03"/>
    <circle class="cls-7" cx="207.42" cy="179.57" r="116.32"/>
    <circle class="cls-2" cx="207.42" cy="179.57" r="113.62"/>
    <circle class="cls-1" cx="207.42" cy="179.57" r="110.91"/>
    <path id="Sketch_w0001" data-name="Sketch w0001" class="cls-8" d="M165.28,105.93c-45.15,23.27-62.88,78.74-39.61,123.89,23.27,45.15,78.74,62.88,123.89,39.61,45.15-23.27,62.88-78.74,39.61-123.89-9.44-18.3-24.74-32.91-43.46-41.49-6.88-2.95-14.84.23-17.8,7.1-2.75,6.4-.2,13.84,5.9,17.21,32.76,14.58,47.5,52.95,32.93,85.71-14.58,32.76-52.95,47.5-85.71,32.93-32.76-14.58-47.5-52.95-32.93-85.71,6.33-14.22,17.56-25.7,31.64-32.34,5.99-4.58,7.13-13.15,2.55-19.14-4-5.23-11.15-6.86-17.02-3.88"/>
    <path id="Sketch_w0009" data-name="Sketch w0009" class="cls-7" d="M246.88,107.76c-4.83-3.6-11.66-2.6-15.26,2.23-3.6,4.83-2.6,11.66,2.23,15.26.97.72,2.06,1.28,3.21,1.65,33.57,16.37,47.52,56.85,31.15,90.42-16.37,33.57-56.85,47.52-90.42,31.15-33.57-16.37-47.52-56.85-31.15-90.42,6.71-13.75,17.88-24.83,31.69-31.41,4.71-3.79,5.45-10.69,1.66-15.39-3.22-3.99-8.77-5.22-13.37-2.95-43.85,22.54-61.12,76.36-38.59,120.2,22.54,43.85,76.36,61.12,120.2,38.59,43.85-22.54,61.12-76.36,38.59-120.2-8.87-17.26-23.13-31.16-40.61-39.6"/>
    <path id="Sketch_w0008" data-name="Sketch w0008" class="cls-5" d="M244.63,109.52c-3.86-2.35-8.89-1.14-11.25,2.72-2.35,3.86-1.14,8.89,2.72,11.25.59.36,1.22.64,1.87.84,34.99,16.87,49.67,58.91,32.8,93.9-16.87,34.99-58.91,49.67-93.9,32.8-34.99-16.87-49.67-58.91-32.8-93.9,6.94-14.39,18.57-25.99,32.99-32.89,3.39-3.09,3.63-8.35.53-11.74-2.26-2.48-5.79-3.35-8.95-2.21-42.74,21.42-60.03,73.43-38.61,116.17,21.42,42.74,73.43,60.03,116.17,38.61,42.74-21.42,60.03-73.43,38.61-116.17-8.64-17.24-22.78-31.1-40.19-39.38"/>
    <path id="Sketch_w0000" data-name="Sketch w0000" class="cls-1" d="M175.43,122.02c2.16-2.2,2.14-5.73-.06-7.89-1.53-1.51-3.8-2-5.82-1.27-41.32,20.91-57.87,71.37-36.95,112.69,20.91,41.32,71.37,57.87,112.69,36.95,41.32-20.91,57.87-71.37,36.95-112.69-8.48-16.75-22.33-30.17-39.33-38.11-2.65-1.41-5.94-.4-7.35,2.25-1.41,2.65-.4,5.94,2.25,7.35.29.15.58.28.89.38,36.45,17.28,51.99,60.83,34.72,97.28-17.28,36.45-60.83,51.99-97.28,34.72-36.45-17.28-51.99-60.83-34.72-97.28,7.1-14.99,19.1-27.11,34.01-34.38"/>
    <path id="Sketch_w0002" data-name="Sketch w0002" class="cls-6" d="M191.19,184.98c0,8.96,7.27,16.23,16.23,16.23s16.23-7.27,16.23-16.23v-89.37c0-8.96-7.27-16.23-16.23-16.23-8.96,0-16.23,7.27-16.23,16.23v89.37"/>
    <path id="Sketch_w0011" data-name="Sketch w0011" class="cls-7" d="M220.95,95.61c0-7.47-6.06-13.53-13.53-13.53-7.47,0-13.53,6.06-13.53,13.53v89.37c0,7.47,6.06,13.53,13.53,13.53s13.53-6.06,13.53-13.53v-89.37"/>
    <path id="Sketch_w0010" data-name="Sketch w0010" class="cls-3" d="M214.46,95.61c0-3.88-3.15-7.03-7.03-7.03-3.88,0-7.03,3.15-7.03,7.03v89.37c0,3.88,3.15,7.03,7.03,7.03s7.03-3.15,7.03-7.03v-89.37"/>
    <path id="Sketch_w0003" data-name="Sketch w0003" class="cls-1" d="M203.09,184.98c0,2.39,1.94,4.33,4.33,4.33,2.39,0,4.33-1.94,4.33-4.33v-89.37c0-2.39-1.94-4.33-4.33-4.33-2.39,0-4.33,1.94-4.33,4.33v89.37"/>
  </g>
</svg>